<svg xmlns="http://www.w3.org/2000/svg" viewBox="0 0 260 80" role="img" aria-label="ContentForge">
  <rect x="0" y="0" width="260" height="80" rx="12" fill="#1c1917"/>
  <!-- Icon mark (full color — reads well on dark) -->
  <g transform="translate(16,24)">
    <rect x="0" y="0" width="32" height="32" rx="9" fill="#c2410c"/>
    <path fill="#ffffff" d="M16 6 C 20 10, 22.5 14, 21 18.5 C 20 21.8, 17 24, 14 24 C 10.5 24, 8 21.3, 8 18 C 8 14.2, 10.5 11, 13.5 8.2 C 14.5 7.3, 15.3 6.6, 16 6 Z"/>
    <path fill="#1c1917" d="M14.5 14 C 16.5 16, 17.3 18, 16.3 20 C 15.6 21.4, 14 22, 12.6 21.3 C 11.3 20.6, 10.8 19, 11.4 17.6 C 12 16.1, 13.2 14.9, 14.5 14 Z"/>
  </g>
  <!-- Wordmark (reversed: white body text, orange accent retained) -->
  <text x="62" y="48" font-size="26" font-family="Inter, -apple-system, 'Segoe UI', sans-serif" font-weight="600" fill="#ffffff">Content<tspan font-family="Lora, Georgia, serif" font-style="italic" font-weight="600" fill="#ea580c">Forge</tspan></text>
</svg>
